<mxfile host="app.diagrams.net" modified="2024-01-23T02:46:54.419Z" agent="Mozilla/5.0 (Windows NT 10.0; Win64; x64) AppleWebKit/537.36 (KHTML, like Gecko) Chrome/120.0.0.0 Safari/537.36" etag="No5SJbyRA71ZG4FK9wqj" version="22.1.16" type="github" pages="3">
  <diagram name="微簇" id="cqasgiF9wPs6VmhjH98Y">
    <mxGraphModel dx="1050" dy="522" grid="1" gridSize="10" guides="1" tooltips="1" connect="1" arrows="1" fold="1" page="1" pageScale="1" pageWidth="827" pageHeight="1169" math="0" shadow="0">
      <root>
        <mxCell id="0" />
        <mxCell id="1" parent="0" />
        <mxCell id="JWYQcv-L3o2rNIDetOFc-1" value="" style="ellipse;whiteSpace=wrap;html=1;aspect=fixed;strokeColor=#A9C4EB;fillColor=#f5f5f5;fontColor=#333333;" vertex="1" parent="1">
          <mxGeometry x="340" y="180" width="180" height="180" as="geometry" />
        </mxCell>
        <mxCell id="JWYQcv-L3o2rNIDetOFc-2" value="" style="ellipse;whiteSpace=wrap;html=1;aspect=fixed;fillColor=#d5e8d4;strokeColor=#A9C4EB;" vertex="1" parent="1">
          <mxGeometry x="385" y="225" width="90" height="90" as="geometry" />
        </mxCell>
        <mxCell id="JWYQcv-L3o2rNIDetOFc-7" style="rounded=0;orthogonalLoop=1;jettySize=auto;html=1;exitX=0;exitY=0.5;exitDx=0;exitDy=0;entryX=0;entryY=0.5;entryDx=0;entryDy=0;fillColor=#1ba1e2;strokeColor=#006EAF;" edge="1" parent="1" source="JWYQcv-L3o2rNIDetOFc-3" target="JWYQcv-L3o2rNIDetOFc-1">
          <mxGeometry relative="1" as="geometry" />
        </mxCell>
        <mxCell id="JWYQcv-L3o2rNIDetOFc-3" value="" style="ellipse;whiteSpace=wrap;html=1;aspect=fixed;fillColor=#1ba1e2;strokeColor=#006EAF;fontColor=#ffffff;" vertex="1" parent="1">
          <mxGeometry x="425" y="265" width="10" height="10" as="geometry" />
        </mxCell>
        <mxCell id="JWYQcv-L3o2rNIDetOFc-8" value="&lt;font face=&quot;Times New Roman&quot;&gt;中心点C&lt;/font&gt;" style="text;html=1;strokeColor=none;fillColor=none;align=center;verticalAlign=middle;whiteSpace=wrap;rounded=0;" vertex="1" parent="1">
          <mxGeometry x="413" y="245" width="47" height="15" as="geometry" />
        </mxCell>
        <mxCell id="JWYQcv-L3o2rNIDetOFc-10" value="半径R" style="text;html=1;strokeColor=none;fillColor=none;align=center;verticalAlign=middle;whiteSpace=wrap;rounded=0;" vertex="1" parent="1">
          <mxGeometry x="354" y="245" width="47" height="25" as="geometry" />
        </mxCell>
        <mxCell id="JWYQcv-L3o2rNIDetOFc-11" value="内核区" style="text;html=1;strokeColor=none;fillColor=none;align=center;verticalAlign=middle;whiteSpace=wrap;rounded=0;" vertex="1" parent="1">
          <mxGeometry x="400" y="285" width="60" height="30" as="geometry" />
        </mxCell>
        <mxCell id="JWYQcv-L3o2rNIDetOFc-12" value="外壳区" style="text;html=1;strokeColor=none;fillColor=none;align=center;verticalAlign=middle;whiteSpace=wrap;rounded=0;" vertex="1" parent="1">
          <mxGeometry x="400" y="190" width="60" height="30" as="geometry" />
        </mxCell>
      </root>
    </mxGraphModel>
  </diagram>
  <diagram id="3An8BaOzg_ggo2mwlidG" name="相交微簇">
    <mxGraphModel dx="1050" dy="522" grid="1" gridSize="10" guides="1" tooltips="1" connect="1" arrows="1" fold="1" page="1" pageScale="1" pageWidth="827" pageHeight="1169" math="0" shadow="0">
      <root>
        <mxCell id="0" />
        <mxCell id="1" parent="0" />
        <mxCell id="FICmv6_89jr-dK4Hhe10-1" value="" style="ellipse;whiteSpace=wrap;html=1;aspect=fixed;strokeColor=#A9C4EB;fillColor=#f5f5f5;fontColor=#333333;" vertex="1" parent="1">
          <mxGeometry x="90" y="140" width="120" height="120" as="geometry" />
        </mxCell>
        <mxCell id="Pet3iqk0Yp9Nh5cqGScN-1" value="" style="ellipse;whiteSpace=wrap;html=1;aspect=fixed;strokeColor=#A9C4EB;fillColor=#f5f5f5;fontColor=#333333;" vertex="1" parent="1">
          <mxGeometry x="180" y="151" width="100" height="100" as="geometry" />
        </mxCell>
        <mxCell id="FICmv6_89jr-dK4Hhe10-2" value="V1" style="ellipse;whiteSpace=wrap;html=1;aspect=fixed;fillColor=#eeeeee;strokeColor=#A9C4EB;" vertex="1" parent="1">
          <mxGeometry x="120" y="170" width="60" height="60" as="geometry" />
        </mxCell>
        <mxCell id="Pet3iqk0Yp9Nh5cqGScN-2" value="V2" style="ellipse;whiteSpace=wrap;html=1;aspect=fixed;fillColor=#eeeeee;strokeColor=#A9C4EB;" vertex="1" parent="1">
          <mxGeometry x="205" y="176" width="50" height="50" as="geometry" />
        </mxCell>
        <mxCell id="Pet3iqk0Yp9Nh5cqGScN-3" value="" style="ellipse;whiteSpace=wrap;html=1;aspect=fixed;strokeColor=#A9C4EB;fillColor=#f5f5f5;fontColor=#333333;" vertex="1" parent="1">
          <mxGeometry x="134" y="219" width="120" height="120" as="geometry" />
        </mxCell>
        <mxCell id="Pet3iqk0Yp9Nh5cqGScN-4" value="V3" style="ellipse;whiteSpace=wrap;html=1;aspect=fixed;fillColor=#eeeeee;strokeColor=#A9C4EB;" vertex="1" parent="1">
          <mxGeometry x="165" y="249" width="60" height="60" as="geometry" />
        </mxCell>
        <mxCell id="xoLB4Y7avBtRYNF9Z8Hq-1" value="" style="ellipse;whiteSpace=wrap;html=1;aspect=fixed;strokeColor=#A9C4EB;fillColor=#f5f5f5;fontColor=#333333;" vertex="1" parent="1">
          <mxGeometry x="340" y="151" width="120" height="120" as="geometry" />
        </mxCell>
        <mxCell id="xoLB4Y7avBtRYNF9Z8Hq-2" value="V4" style="ellipse;whiteSpace=wrap;html=1;aspect=fixed;fillColor=#eeeeee;strokeColor=#A9C4EB;" vertex="1" parent="1">
          <mxGeometry x="371" y="181" width="60" height="60" as="geometry" />
        </mxCell>
        <mxCell id="xoLB4Y7avBtRYNF9Z8Hq-3" value="" style="ellipse;whiteSpace=wrap;html=1;aspect=fixed;strokeColor=#A9C4EB;fillColor=#f5f5f5;fontColor=#333333;" vertex="1" parent="1">
          <mxGeometry x="425" y="130" width="100" height="100" as="geometry" />
        </mxCell>
        <mxCell id="xoLB4Y7avBtRYNF9Z8Hq-4" value="V5" style="ellipse;whiteSpace=wrap;html=1;aspect=fixed;fillColor=#eeeeee;strokeColor=#A9C4EB;" vertex="1" parent="1">
          <mxGeometry x="450" y="155" width="50" height="50" as="geometry" />
        </mxCell>
        <mxCell id="xoLB4Y7avBtRYNF9Z8Hq-5" value="" style="ellipse;whiteSpace=wrap;html=1;aspect=fixed;strokeColor=#A9C4EB;fillColor=#f5f5f5;fontColor=#333333;" vertex="1" parent="1">
          <mxGeometry x="493" y="85" width="120" height="120" as="geometry" />
        </mxCell>
        <mxCell id="xoLB4Y7avBtRYNF9Z8Hq-6" value="V6" style="ellipse;whiteSpace=wrap;html=1;aspect=fixed;fillColor=#eeeeee;strokeColor=#A9C4EB;" vertex="1" parent="1">
          <mxGeometry x="524" y="115" width="60" height="60" as="geometry" />
        </mxCell>
        <mxCell id="xoLB4Y7avBtRYNF9Z8Hq-7" value="" style="ellipse;whiteSpace=wrap;html=1;aspect=fixed;strokeColor=#A9C4EB;fillColor=#f5f5f5;fontColor=#333333;" vertex="1" parent="1">
          <mxGeometry x="320" y="273" width="120" height="120" as="geometry" />
        </mxCell>
        <mxCell id="xoLB4Y7avBtRYNF9Z8Hq-8" value="V7" style="ellipse;whiteSpace=wrap;html=1;aspect=fixed;fillColor=#eeeeee;strokeColor=#A9C4EB;" vertex="1" parent="1">
          <mxGeometry x="351" y="303" width="60" height="60" as="geometry" />
        </mxCell>
        <mxCell id="xoLB4Y7avBtRYNF9Z8Hq-9" value="" style="ellipse;whiteSpace=wrap;html=1;aspect=fixed;strokeColor=#A9C4EB;fillColor=#f5f5f5;fontColor=#333333;" vertex="1" parent="1">
          <mxGeometry x="402" y="245" width="100" height="100" as="geometry" />
        </mxCell>
        <mxCell id="xoLB4Y7avBtRYNF9Z8Hq-10" value="V8" style="ellipse;whiteSpace=wrap;html=1;aspect=fixed;fillColor=#eeeeee;strokeColor=#A9C4EB;" vertex="1" parent="1">
          <mxGeometry x="427" y="270" width="50" height="50" as="geometry" />
        </mxCell>
      </root>
    </mxGraphModel>
  </diagram>
  <diagram id="wp3iDOGfQ77wht-XJIhz" name="聚类过程">
    <mxGraphModel dx="1050" dy="522" grid="1" gridSize="10" guides="1" tooltips="1" connect="1" arrows="1" fold="1" page="1" pageScale="1" pageWidth="827" pageHeight="1169" math="0" shadow="0">
      <root>
        <mxCell id="0" />
        <mxCell id="1" parent="0" />
        <mxCell id="kiu-kQget2Vg2zzVwWmD-4" style="rounded=0;orthogonalLoop=1;jettySize=auto;html=1;exitX=1;exitY=0.5;exitDx=0;exitDy=0;endArrow=none;endFill=0;strokeColor=#A9C4EB;" edge="1" parent="1" source="kiu-kQget2Vg2zzVwWmD-1" target="kiu-kQget2Vg2zzVwWmD-2">
          <mxGeometry relative="1" as="geometry" />
        </mxCell>
        <mxCell id="kiu-kQget2Vg2zzVwWmD-7" style="rounded=0;orthogonalLoop=1;jettySize=auto;html=1;exitX=0.5;exitY=1;exitDx=0;exitDy=0;entryX=0;entryY=0.5;entryDx=0;entryDy=0;endArrow=none;endFill=0;strokeColor=#A9C4EB;" edge="1" parent="1" source="kiu-kQget2Vg2zzVwWmD-1" target="kiu-kQget2Vg2zzVwWmD-3">
          <mxGeometry relative="1" as="geometry" />
        </mxCell>
        <mxCell id="kiu-kQget2Vg2zzVwWmD-1" value="V1" style="ellipse;whiteSpace=wrap;html=1;aspect=fixed;fillColor=#eeeeee;strokeColor=#A9C4EB;" vertex="1" parent="1">
          <mxGeometry x="200" y="205" width="60" height="60" as="geometry" />
        </mxCell>
        <mxCell id="kiu-kQget2Vg2zzVwWmD-8" style="rounded=0;orthogonalLoop=1;jettySize=auto;html=1;exitX=0.5;exitY=1;exitDx=0;exitDy=0;entryX=1;entryY=0.5;entryDx=0;entryDy=0;endArrow=none;endFill=0;strokeColor=#A9C4EB;" edge="1" parent="1" source="kiu-kQget2Vg2zzVwWmD-2" target="kiu-kQget2Vg2zzVwWmD-3">
          <mxGeometry relative="1" as="geometry" />
        </mxCell>
        <mxCell id="kiu-kQget2Vg2zzVwWmD-2" value="V2" style="ellipse;whiteSpace=wrap;html=1;aspect=fixed;fillColor=#eeeeee;strokeColor=#A9C4EB;" vertex="1" parent="1">
          <mxGeometry x="310" y="200" width="60" height="60" as="geometry" />
        </mxCell>
        <mxCell id="kiu-kQget2Vg2zzVwWmD-3" value="V3" style="ellipse;whiteSpace=wrap;html=1;aspect=fixed;fillColor=#eeeeee;strokeColor=#A9C4EB;" vertex="1" parent="1">
          <mxGeometry x="260" y="345" width="60" height="60" as="geometry" />
        </mxCell>
        <mxCell id="4z08wdtTMhsx3YwAyzjv-4" style="rounded=0;orthogonalLoop=1;jettySize=auto;html=1;exitX=1;exitY=0.5;exitDx=0;exitDy=0;entryX=0;entryY=1;entryDx=0;entryDy=0;endArrow=none;endFill=0;strokeColor=#A9C4EB;" edge="1" parent="1" source="k-szPujHSKpe_sfkMkby-2" target="k-szPujHSKpe_sfkMkby-4">
          <mxGeometry relative="1" as="geometry" />
        </mxCell>
        <mxCell id="k-szPujHSKpe_sfkMkby-2" value="V4" style="ellipse;whiteSpace=wrap;html=1;aspect=fixed;fillColor=#cdeb8b;strokeColor=#A9C4EB;" vertex="1" parent="1">
          <mxGeometry x="424" y="235" width="60" height="60" as="geometry" />
        </mxCell>
        <mxCell id="k-szPujHSKpe_sfkMkby-3" value="V6" style="ellipse;whiteSpace=wrap;html=1;aspect=fixed;fillColor=#cdeb8b;strokeColor=#A9C4EB;" vertex="1" parent="1">
          <mxGeometry x="630" y="160" width="60" height="60" as="geometry" />
        </mxCell>
        <mxCell id="k-szPujHSKpe_sfkMkby-7" style="rounded=0;orthogonalLoop=1;jettySize=auto;html=1;exitX=1;exitY=0.5;exitDx=0;exitDy=0;entryX=0;entryY=1;entryDx=0;entryDy=0;endArrow=none;endFill=0;strokeColor=#A9C4EB;" edge="1" parent="1" source="k-szPujHSKpe_sfkMkby-4" target="k-szPujHSKpe_sfkMkby-3">
          <mxGeometry relative="1" as="geometry" />
        </mxCell>
        <mxCell id="k-szPujHSKpe_sfkMkby-4" value="V5" style="ellipse;whiteSpace=wrap;html=1;aspect=fixed;fillColor=#cdeb8b;strokeColor=#A9C4EB;" vertex="1" parent="1">
          <mxGeometry x="520" y="200" width="60" height="60" as="geometry" />
        </mxCell>
        <mxCell id="4z08wdtTMhsx3YwAyzjv-3" style="rounded=0;orthogonalLoop=1;jettySize=auto;html=1;exitX=1;exitY=0.5;exitDx=0;exitDy=0;endArrow=none;endFill=0;strokeColor=#A9C4EB;" edge="1" parent="1" source="4z08wdtTMhsx3YwAyzjv-1" target="4z08wdtTMhsx3YwAyzjv-2">
          <mxGeometry relative="1" as="geometry" />
        </mxCell>
        <mxCell id="4z08wdtTMhsx3YwAyzjv-1" value="V7" style="ellipse;whiteSpace=wrap;html=1;aspect=fixed;fillColor=#cce5ff;strokeColor=#A9C4EB;" vertex="1" parent="1">
          <mxGeometry x="430" y="335" width="60" height="60" as="geometry" />
        </mxCell>
        <mxCell id="4z08wdtTMhsx3YwAyzjv-2" value="V8" style="ellipse;whiteSpace=wrap;html=1;aspect=fixed;fillColor=#cce5ff;strokeColor=#A9C4EB;" vertex="1" parent="1">
          <mxGeometry x="530" y="295" width="60" height="60" as="geometry" />
        </mxCell>
      </root>
    </mxGraphModel>
  </diagram>
</mxfile>
